<svg width="33" height="22" viewBox="0 0 33 22" fill="none" xmlns="http://www.w3.org/2000/svg">
<path d="M4.45921 10.886C5.05296 11.2688 5.46312 11.7142 5.68968 12.222C5.91624 12.7298 6.02953 13.6048 6.02953 14.847V16.5813C6.02953 17.3548 6.09203 17.8392 6.21703 18.0345C6.34984 18.2376 6.59593 18.3743 6.95531 18.4446C7.04124 18.4681 7.17015 18.4915 7.34203 18.5149C8.22484 18.6478 8.66624 19.0813 8.66624 19.8157C8.66624 20.1751 8.53734 20.4642 8.27953 20.6829C8.02171 20.9017 7.67796 21.011 7.24828 21.011C6.7014 21.011 6.17015 20.9212 5.65453 20.7415C5.14671 20.5618 4.72484 20.3157 4.3889 20.0032C4.02171 19.6673 3.75999 19.2337 3.60374 18.7024C3.45531 18.1712 3.38109 17.261 3.38109 15.972V14.6126C3.38109 13.2063 2.73265 12.3978 1.43578 12.1868C1.38109 12.1712 1.34203 12.1634 1.31859 12.1634C0.943588 12.1009 0.666245 11.9681 0.486557 11.7649C0.30687 11.5618 0.217026 11.2688 0.217026 10.886C0.217026 10.5501 0.291245 10.2845 0.439682 10.0892C0.595932 9.89384 0.842026 9.75322 1.17796 9.66728C1.3264 9.62041 1.54124 9.56963 1.82249 9.51494C2.86156 9.31963 3.38109 8.54619 3.38109 7.19463V5.80009C3.38109 4.60478 3.43968 3.76884 3.55687 3.29228C3.67406 2.80791 3.87328 2.38603 4.15453 2.02666C4.48265 1.62822 4.92015 1.31963 5.46703 1.10088C6.02171 0.874313 6.63109 0.761032 7.29515 0.761032C7.70921 0.761032 8.04124 0.870407 8.29124 1.08916C8.54124 1.30009 8.66624 1.58134 8.66624 1.93291C8.66624 2.66728 8.19359 3.10869 7.24828 3.25713C7.16234 3.26494 7.09984 3.27275 7.06078 3.28056C6.67015 3.34306 6.40062 3.48759 6.25218 3.71416C6.10374 3.93291 6.02953 4.43681 6.02953 5.22588V6.94853C6.02953 8.12041 5.91234 8.97978 5.67796 9.52666C5.44359 10.0735 5.03734 10.5267 4.45921 10.886Z" fill="#218FE8"/>
<path d="M28.6011 10.886C28.0307 10.5267 27.6284 10.0735 27.394 9.52666C27.1597 8.97978 27.0425 8.12041 27.0425 6.94853V5.22588V4.47588C27.0425 4.10869 26.9487 3.83134 26.7612 3.64384C26.5737 3.44853 26.2612 3.31963 25.8237 3.25713C25.2534 3.179 24.8745 3.04619 24.687 2.85869C24.4995 2.67119 24.4057 2.38603 24.4057 2.00322C24.4057 1.61259 24.5229 1.30791 24.7573 1.08916C24.9995 0.870407 25.3393 0.761032 25.7768 0.761032C26.355 0.761032 26.894 0.84697 27.394 1.01884C27.894 1.19072 28.312 1.43291 28.6479 1.74541C29.0307 2.09697 29.3003 2.53447 29.4565 3.05791C29.6128 3.57353 29.6909 4.48759 29.6909 5.80009V7.19463C29.6909 8.554 30.2261 9.33916 31.2964 9.55009C31.5542 9.58916 31.7534 9.62822 31.894 9.66728C32.2222 9.75322 32.4643 9.89775 32.6206 10.1009C32.7768 10.2962 32.855 10.5579 32.855 10.886C32.855 11.2298 32.7729 11.5071 32.6089 11.7181C32.4448 11.9212 32.1987 12.0618 31.8706 12.1399C31.7456 12.1634 31.5698 12.1946 31.3432 12.2337C30.2417 12.4446 29.6909 13.2376 29.6909 14.6126V15.972C29.6909 17.2063 29.6323 18.0618 29.5151 18.5384C29.3979 19.0228 29.1987 19.4329 28.9175 19.7688C28.6128 20.136 28.1714 20.4329 27.5932 20.6595C27.0229 20.8938 26.4253 21.011 25.8003 21.011C25.3628 21.011 25.019 20.8978 24.769 20.6712C24.5268 20.4524 24.4057 20.1438 24.4057 19.7454C24.4057 19.3782 24.4956 19.1009 24.6753 18.9134C24.8628 18.7259 25.2456 18.5853 25.8237 18.4915C26.3003 18.4212 26.6206 18.2923 26.7847 18.1048C26.9565 17.9173 27.0425 17.6165 27.0425 17.2024V16.5813V14.847C27.0425 13.6048 27.1557 12.7298 27.3823 12.222C27.6089 11.7142 28.0151 11.2688 28.6011 10.886Z" fill="#218FE8"/>
<path fill-rule="evenodd" clip-rule="evenodd" d="M11.0891 2.35996C11.3384 2.10984 11.6771 1.96925 12.0302 1.96925C15.5528 1.96925 17.7056 2.04162 19.1836 2.43104C19.9745 2.63941 20.6077 2.94435 21.175 3.38333C21.717 3.80265 22.1529 4.31104 22.5732 4.8309C23.1678 5.56628 23.5424 6.56548 23.7735 7.56696C24.0107 8.59455 24.1248 9.74856 24.1193 10.8944C24.1138 12.0404 23.9884 13.2157 23.7248 14.2844C23.4655 15.3359 23.0496 16.377 22.4009 17.1729C21.8741 17.8191 21.3336 18.3581 20.6828 18.7617C20.0194 19.1732 19.3173 19.3974 18.5286 19.5208C17.7642 19.6403 16.886 19.6692 15.8642 19.6731C15.3688 19.6751 14.7892 19.6706 14.147 19.6657C13.5051 19.6608 12.8007 19.6554 12.0553 19.6554C11.3215 19.6554 10.7266 19.0605 10.7266 18.3267C10.7266 17.5929 11.3215 16.998 12.0553 16.998C12.8684 16.998 13.5641 17.0036 14.1875 17.0086C14.7982 17.0135 15.3395 17.0179 15.8539 17.0159C16.8621 17.0119 17.5673 16.9815 18.118 16.8954C18.6445 16.813 18.9891 16.6853 19.2822 16.5035C19.5879 16.3139 19.9137 16.0183 20.3411 15.494C20.6466 15.1192 20.9355 14.4969 21.1448 13.6481C21.35 12.8164 21.4573 11.8544 21.462 10.8817C21.4667 9.90883 21.3685 8.96275 21.1843 8.16452C20.994 7.34018 20.7382 6.78783 20.5068 6.50157C20.1011 5.9998 19.8285 5.70134 19.5489 5.48503C19.2948 5.28839 18.9935 5.12896 18.5066 5.00066C17.5703 4.75399 16.1068 4.65356 13.3633 4.63146L13.3867 11.728C13.4992 11.5749 13.6126 11.4153 13.7278 11.2516C13.7663 11.1969 13.8055 11.1409 13.8452 11.0842C14.0628 10.7736 14.2959 10.441 14.5117 10.169C14.7637 9.85142 15.147 9.6663 15.5524 9.6663C15.9579 9.6663 16.3411 9.85142 16.5932 10.169L17.4106 11.199C17.4111 11.188 17.4116 11.1771 17.412 11.1662C17.4327 10.6834 17.4077 10.2332 17.3475 9.87873C17.2975 9.58468 17.2384 9.44669 17.222 9.40856C17.2161 9.3947 17.2158 9.39404 17.2237 9.40388C16.7653 8.83088 16.8582 7.99476 17.4312 7.53636C18.0042 7.07796 18.8403 7.17087 19.2987 7.74387C19.6994 8.24475 19.8771 8.9034 19.9672 9.43347C20.0652 10.01 20.0938 10.6524 20.0669 11.2799C20.04 11.9092 19.9556 12.5617 19.8085 13.1602C19.6666 13.7375 19.443 14.3625 19.0813 14.8629C18.8377 15.2 18.4502 15.4036 18.0344 15.413C17.6185 15.4223 17.2223 15.2364 16.9637 14.9106L15.6041 13.1974C15.4116 13.4626 15.2029 13.7382 14.9837 13.9988C14.6527 14.3924 14.2452 14.8162 13.7693 15.1283C13.2881 15.444 12.6207 15.7187 11.8439 15.5867C11.2067 15.4785 10.7399 14.9275 10.7377 14.2812L10.7015 3.30229C10.7004 2.94915 10.8398 2.61008 11.0891 2.35996Z" fill="#D0433C"/>
</svg>
